<svg id="Layer_1" data-name="Layer 1" xmlns="http://www.w3.org/2000/svg" xmlns:xlink="http://www.w3.org/1999/xlink" viewBox="0 0 576 576"><defs><style>.cls-1{fill:url(#linear-gradient);}.cls-2{fill:url(#linear-gradient-2);}</style><linearGradient id="linear-gradient" y1="342.17" x2="111.93" y2="342.17" gradientUnits="userSpaceOnUse"><stop offset="0" stop-color="#4d4dff"/><stop offset="0.85" stop-color="#3e3bf6"/><stop offset="1" stop-color="#3b37f4"/></linearGradient><linearGradient id="linear-gradient-2" x1="411.79" y1="288" x2="873.01" y2="288" gradientTransform="matrix(-1, 0, 0, 1, 987.79, 0)" xlink:href="#linear-gradient"/></defs><path class="cls-1" d="M63,295.86c-3.32-5.74-10.77-5.74-14.09,0L1.39,378.06c-3.66,6.33.35,14.72,7,14.72H103.5c6.69,0,10.7-8.39,7-14.72Z"/><path class="cls-2" d="M574.59,375.75,415.65,100.43a10,10,0,0,0-17.37,0L296.08,277.31a7.94,7.94,0,0,1-13.74,0C247.72,217.44,213.81,158.79,179.26,99a9.05,9.05,0,0,0-15.66,0l-14,24.11c-11.21,19.41-22.09,37.36-32.92,57-1.65,3-2.75,9.67-1.18,12.4,47.17,82.12,134.78,233.16,164.28,283.38a11.38,11.38,0,0,0,19.67-.08C332.73,418.25,365.79,361,399.6,302.44a8.48,8.48,0,0,1,14.66,0c16,27.58,31.32,53.79,46.19,80.26,3.73,6.64,7.84,10,15.52,9.88,23.11-.28,65.61.19,89.75,0C573.66,392.5,578.56,382.62,574.59,375.75Z"/></svg>